# xmcd
#
# Track frame offsets:
#	150
#	19547
#	34172
#	53912
#	70805
#	89477
#	111925
#	131760
#	145847
#	165440
#	183825
#	204590
#	220705
#	240562
#	257892
#	275612
#	293054
#
# Disc length: 4187 seconds
#
# Revision: 1
# Processed by: cddbd v1.5.2PL0 Copyright (c) Steve Scherf et al.
# Submitted via: dBpowerAMP V4.0
#
DISCID=f9105911
DTITLE=蔡依林 - Jolin - Show your Love
DYEAR=2000
DGENRE=Chinese
TTITLE0=Show Your Love
TTITLE1=快有愛
TTITLE2=你還愛我嗎?
TTITLE3=Baby Face
TTITLE4=如果那天你說愛我
TTITLE5=捨不得
TTITLE6=愛上了一條街
TTITLE7=Pretty Pretty Day
TTITLE8=一眼就看見
TTITLE9=感覺你的存在
TTITLE10=你快樂嗎?
TTITLE11=Don't Stop
TTITLE12=我知道你很難過
TTITLE13=唱這首歌
TTITLE14=和世界做鄰居
TTITLE15=嗨
TTITLE16=Because Of You
EXTD=
EXTT0=
EXTT1=
EXTT2=
EXTT3=
EXTT4=
EXTT5=
EXTT6=
EXTT7=
EXTT8=
EXTT9=
EXTT10=
EXTT11=
EXTT12=
EXTT13=
EXTT14=
EXTT15=
EXTT16=
PLAYORDER=
